<?xml version="1.0" encoding="utf-8"?>
<!-- Generator: Adobe Illustrator 25.1.0, SVG Export Plug-In . SVG Version: 6.00 Build 0)  -->
<svg version="1.1" id="Layer_1" xmlns="http://www.w3.org/2000/svg" xmlns:xlink="http://www.w3.org/1999/xlink" x="0px" y="0px"
	 viewBox="0 0 214 328" style="enable-background:new 0 0 214 328;" xml:space="preserve">
<style type="text/css">
	.st0{fill:none;stroke:#F16522;stroke-width:0.25;stroke-miterlimit:10;}
</style>
<path class="st0" d="M68.5,67.6c0,0-0.9-3.6,3.8-5.8L83.9,56c0,0,4.7-2.2,5.1-2c0.4,0.2,0-13.5,0-13.5h5.3V54L118,68.9h13.8l1.8,4.7
	h-15.3c0,0-2,5.6-19.3,11.6v7.3h-5.3v-8.2c0,0-1.8-0.2-24.2-13.1H55l1.9-3.8L68.5,67.6z"/>
<ellipse class="st0" cx="32.6" cy="62.7" rx="20.9" ry="11"/>
<path class="st0" d="M11.7,61.5c0,0,0.5-12.8,20.9-12.8c0,0,20.9-0.9,20.9,14"/>
<path class="st0" d="M57.5,62.9c0,9.7-10.1,17.5-23.9,17.5S8.7,72.5,8.7,62.9s11.1-17.5,24.9-17.5S57.5,53.2,57.5,62.9z"/>
<path class="st0" d="M9.2,59.5c0,0,1,19.3,25.3,17.5c0,0,16.2,0.4,23-14.2"/>
<polygon class="st0" points="26.5,62.7 26.5,68.3 29.8,70.8 36.3,70.8 38.7,66.7 38.7,62.7 35.7,57.5 30.7,57.5 "/>
<polyline class="st0" points="29,59.5 31,62.7 35.1,62.7 37.2,60.2 "/>
<line class="st0" x1="26.5" y1="65.2" x2="38.7" y2="65.2"/>
<rect x="31.4" y="59.5" class="st0" width="3" height="1.6"/>
<polygon class="st0" points="29,66.2 36.6,66.2 36.6,68.3 35.1,69.8 30.5,69.8 29,68.3 "/>
<path class="st0" d="M38.2,67.6"/>
<line class="st0" x1="51.1" y1="67.6" x2="38.2" y2="67.6"/>
<line class="st0" x1="36.3" y1="70.8" x2="45.8" y2="70.8"/>
<path class="st0" d="M10.2,56.9c0,0-2.8,0.9-2.8,4.2v4.1c0,0,0.2,3.1,3.7,5.2C11.2,70.4,6.4,64.3,10.2,56.9z"/>
<polyline class="st0" points="69.3,71.1 69.1,75.7 50.1,75.7 "/>
<ellipse class="st0" cx="156.1" cy="67.8" rx="20.9" ry="11"/>
<path class="st0" d="M135.3,66.6c0,0,0.5-12.8,20.9-12.8c0,0,20.9-0.9,20.9,14"/>
<path class="st0" d="M181.1,68c0,9.7-10.1,17.5-23.9,17.5s-24.9-7.8-24.9-17.5s11.1-17.5,24.9-17.5S181.1,58.4,181.1,68z"/>
<path class="st0" d="M132.8,64.7c0,0,1,19.3,25.3,17.5c0,0,16.2,0.4,23-14.2"/>
<polygon class="st0" points="150.1,67.8 150.1,73.5 153.4,76 159.9,76 162.2,71.9 162.2,67.8 159.3,62.6 154.2,62.6 "/>
<polyline class="st0" points="152.6,64.7 154.5,67.8 158.7,67.8 160.8,65.3 "/>
<line class="st0" x1="150.1" y1="70.3" x2="162.2" y2="70.3"/>
<rect x="155" y="64.7" class="st0" width="3" height="1.6"/>
<polygon class="st0" points="152.6,71.4 160.2,71.4 160.2,73.5 158.7,74.9 154.1,74.9 152.6,73.5 "/>
<path class="st0" d="M161.8,72.7"/>
<path class="st0" d="M179,75.5c0,0,3.4-0.7,3.6-4l0.3-4.1c0,0,0-3.1-3.3-5.5C179.6,61.9,183.3,68.3,179,75.5z"/>
<path class="st0" d="M69.1,75.7l0.2,3l24.2,13.8h5.3c0,0,18.9-8.8,20.1-12.1v-7"/>
<line class="st0" x1="119" y1="78.8" x2="137.9" y2="78.8"/>
<ellipse class="st0" cx="91.8" cy="22.8" rx="20.9" ry="11"/>
<path class="st0" d="M70.9,21.6c0,0,0.5-12.8,20.9-12.8c0,0,20.9-0.9,20.9,14"/>
<path class="st0" d="M116.7,23c0,9.7-10.1,17.5-23.9,17.5S67.9,32.7,67.9,23S79.1,5.5,92.8,5.5S116.7,13.4,116.7,23z"/>
<path class="st0" d="M68.4,19.7c0,0,1,19.3,25.3,17.5c0,0,16.2,0.4,23-14.2"/>
<polygon class="st0" points="85.7,22.8 85.7,28.5 89,31 95.5,31 97.8,26.9 97.8,22.8 94.9,17.7 89.8,17.7 "/>
<polyline class="st0" points="88.2,19.7 90.1,22.8 94.3,22.8 96.4,20.4 "/>
<line class="st0" x1="85.7" y1="25.4" x2="97.8" y2="25.4"/>
<rect x="90.6" y="19.7" class="st0" width="3" height="1.6"/>
<polygon class="st0" points="88.2,26.4 95.8,26.4 95.8,28.5 94.3,30 89.7,30 88.2,28.5 "/>
<path class="st0" d="M97.4,27.7"/>
<path class="st0" d="M97.4,27.7"/>
<path class="st0" d="M110.3,27.7"/>
<path class="st0" d="M105,31"/>
<path class="st0" d="M95.5,31"/>
<path class="st0" d="M69.4,17.1c0,0-2.8,0.9-2.8,4.2v4.1c0,0,0.2,3.1,3.7,5.2C70.4,30.6,65.6,24.5,69.4,17.1z"/>
<path class="st0" d="M114.6,30.5c0,0,3.4-0.7,3.6-4l0.3-4.1c0,0,0-3.1-3.3-5.5C115.2,16.9,118.9,23.4,114.6,30.5z"/>
<ellipse class="st0" cx="93.8" cy="109.7" rx="20.9" ry="11"/>
<path class="st0" d="M72.9,108.5c0,0,0.5-12.8,20.9-12.8c0,0,20.9-0.9,20.9,14"/>
<path class="st0" d="M118.7,109.9c0,9.7-10.1,17.5-23.9,17.5s-24.9-7.8-24.9-17.5s11.1-17.5,24.9-17.5S118.7,100.3,118.7,109.9z"/>
<path class="st0" d="M70.4,106.6c0,0,1,19.3,25.3,17.5c0,0,16.2,0.4,23-14.2"/>
<polygon class="st0" points="87.7,109.7 87.7,115.4 91,117.9 97.5,117.9 99.8,113.8 99.8,109.7 96.9,104.6 91.8,104.6 "/>
<polyline class="st0" points="90.2,106.6 92.1,109.7 96.3,109.7 98.4,107.3 "/>
<line class="st0" x1="87.7" y1="112.3" x2="99.8" y2="112.3"/>
<rect x="92.6" y="106.6" class="st0" width="3" height="1.6"/>
<polygon class="st0" points="90.2,113.3 97.8,113.3 97.8,115.4 96.3,116.9 91.7,116.9 90.2,115.4 "/>
<path class="st0" d="M99.4,114.6"/>
<path class="st0" d="M99.4,114.6"/>
<path class="st0" d="M112.3,114.6"/>
<path class="st0" d="M107,117.9"/>
<path class="st0" d="M97.5,117.9"/>
<path class="st0" d="M71.4,104c0,0-2.8,0.9-2.8,4.2v4.1c0,0,0.2,3.1,3.7,5.2C72.4,117.5,67.6,111.4,71.4,104z"/>
<path class="st0" d="M116.6,117.4c0,0,3.4-0.7,3.6-4l0.3-4.1c0,0,0-3.1-3.3-5.5C117.2,103.8,120.9,110.3,116.6,117.4z"/>
<path class="st0" d="M71.5,80.3v5.4c0,0,3.1,5,10.7,8.9"/>
<path class="st0" d="M75.5,82.2V85c0,0,1.2,3.6,10.6,8.4"/>
<line class="st0" x1="135.3" y1="69.3" x2="150.1" y2="69.3"/>
<line class="st0" x1="138.3" y1="73.4" x2="150.1" y2="73.4"/>
<line class="st0" x1="102.4" y1="210" x2="102.4" y2="91"/>
<polygon class="st0" points="39.5,207.5 39.5,310.8 59.1,322.6 59.1,218.8 "/>
<polygon class="st0" points="39.5,207.5 56.9,197.2 75.8,208.8 59.1,218.8 "/>
<polyline class="st0" points="75.8,208.8 75.8,312.3 59.1,322.6 "/>
<path class="st0" d="M75.8,222.8c0,0,10.2-18,29.6-23.6c0,0,5.8-0.7,9.1,1.3c0,0,22.2,10.7,24.2,20.2v54l-13.8,8.9l-0.4-8.9
	c0,0-6.9,23.1-29.1,24.9c0,0-5.3,0.9-19.6-10.2"/>
<path class="st0" d="M89.6,298.2c0,0-23.6-30.8,33.7-56.5v-9.6c0,0-4.9-5.3-11.8,0c-6.9,5.3-9.5,15.3-9.2,15.3s-14.6,9.1-14.6,9.1
	l-12-7.2"/>
<path class="st0" d="M87.8,256.6c0,0,0.8-40.3,43.1-45.8"/>
<path class="st0" d="M123.3,255.7c0,0-22.7,4.2-22.9,20.7C100.2,292.8,129.1,266.9,123.3,255.7z"/>
<line class="st0" x1="109.3" y1="234.2" x2="122" y2="242.3"/>
<polyline class="st0" points="138.7,258.3 152.7,267.5 152.7,163 132.4,151.2 132.4,212.6 "/>
<polygon class="st0" points="132.4,151.2 148.7,141.9 168,153.9 152.7,163 "/>
<path class="st0" d="M168,153.9v39.6c0,0,10.2-24.2,28.7-24.2s12.4,38.8,12.4,38.8s-12.9,54.2-41.1,41.4v8.7l-15.3,10.6"/>
<path class="st0" d="M166.2,216.6c0,0,4.4-25.8,20.7-26.7c0,0,9.1-1.4,7.1,20.9s-17.8,27.4-20.9,26.2S164.4,229.9,166.2,216.6z"/>
<path class="st0" d="M175.2,196.2c0,0,0.6,11.4-9.2,22.6"/>
<path class="st0" d="M168,160.8l6.2-2.9c0,0,4-1.1,7.1,0c3.1,1.1,17,11.4,17,11.4"/>
<ellipse class="st0" cx="102.3" cy="209.4" rx="3.5" ry="4.8"/>
<line class="st0" x1="93.6" y1="98.8" x2="93.6" y2="104.6"/>
<line class="st0" x1="98.7" y1="99.4" x2="98.7" y2="106.6"/>
</svg>
